<svg version="1.1" xmlns="http://www.w3.org/2000/svg" xmlns:xlink="http://www.w3.org/1999/xlink" x="0px" y="0px" width="40px" height="40px" viewBox="0 0 40 40" style="enable-background:new 0 0 40 40" xml:space="preserve">
    <circle id="Oval_1_" cx="20" cy="20" r="19" style="fill:none;stroke:#c3c3c3;stroke-width:2"/>
    <g id="iconfinder_office-48_809574_1_" transform="translate(11.000000, 9.000000)">
        <path id="Path_1_" d="M17.9,6c-1.6-1.7-4.2-1.7-5.8,0l-7,7.2c-1,1-1,2.6,0,3.6s2.5,1,3.5,0l5.8-6
		c0.3-0.3,0.3-0.8,0-1.2c-0.3-0.3-0.8-0.3-1.1,0l-5.8,6c-0.3,0.3-0.8,0.3-1.1,0c-0.3-0.3-0.3-0.8,0-1.2l7-7.3c1-1,2.5-1,3.5,0
		s1,2.6,0,3.6l-7,7.2c-1.6,1.7-4.2,1.7-5.8,0c-1.6-1.7-1.6-4.3,0-6l9.3-9.5c0.3-0.3,0.3-0.8,0-1.2c-0.3-0.3-0.8-0.3-1.1,0l-9.4,9.6
		c-2.3,2.3-2.3,6.1,0,8.4s5.9,2.3,8.1,0l7-7.2C19.4,10.4,19.4,7.7,17.9,6z" style="fill:#c3c3c3"/>
    </g>
</svg>
